<?xml version="1.0" encoding="utf-8"?>
<!-- Generator: Adobe Illustrator 19.2.1, SVG Export Plug-In . SVG Version: 6.00 Build 0)  -->
<svg version="1.1" id="Layer_1" xmlns="http://www.w3.org/2000/svg" xmlns:xlink="http://www.w3.org/1999/xlink" x="0px" y="0px"
	 viewBox="0 0 1000 1000" style="enable-background:new 0 0 1000 1000;" xml:space="preserve">
<style type="text/css">
	.st0{fill:#FFFFFF;}
</style>
<g>
	<path id="PERSON" d="M489.2,9.3c7.7,0,15.4,0,23,0c0.7,0.1,1.4,0.3,2.1,0.4c8.5,0.8,17.1,1.4,25.5,2.5c17.2,2.2,34,6.2,50.3,11.8
		c52.6,17.9,96.5,48.6,131,92.1c36.7,46.1,56.7,98.7,60.7,157.5c1.2,17.6,0.5,35.2-1.7,52.7c-2.3,17.9-6.2,35.4-11.9,52.5
		c-14.6,43.8-38.6,81.8-71.7,114c-0.7,0.7-1.4,1.4-2.3,2.3c0.9,0.6,1.6,1.1,2.4,1.5c37.4,22.9,74.9,45.8,112.3,68.8
		c11.7,7.2,23.5,14.4,35.2,21.5c1.1,0.7,2,1.4,2.1,2.9c0.2,3.3,0.7,6.7,1,10c0.9,8,1.7,16.1,2.6,24.1c1.1,9.8,2.1,19.5,3.2,29.3
		c1,9.4,2,18.8,3,28.1c1,9.6,2.1,19.2,3.2,28.8c1,9.5,2,19.1,3.1,28.6c1.1,9.9,2.2,19.7,3.2,29.6c1,9.4,2,18.8,3,28.1
		c1.1,9.8,2.1,19.5,3.2,29.3c1,9.5,2,18.9,3.1,28.4c1.1,9.7,2.1,19.4,3.2,29.1c1,9.5,2,18.9,3.1,28.4c1.1,9.8,2.1,19.5,3.2,29.3
		c0.9,8.2,1.8,16.4,2.7,24.6c0.8,7.2,1.4,14.5,2.2,21.7c0.1,0.6,0.3,1.2,0.4,1.8c-0.1,0.2-0.2,0.5-0.2,0.5c-0.6,0-1.3,0-1.9,0
		c-258.5,0-517,0-775.4,0c0-0.6,0-1.3,0-1.9c0.3-1.1,0.8-2.1,0.9-3.2c1.4-12.6,2.7-25.1,4-37.7c1.4-12.6,2.8-25.1,4.1-37.7
		c1.4-12.6,2.7-25.1,4-37.7c1.7-15.5,3.4-31,5.1-46.5c1.5-14.1,3-28.1,4.5-42.2c1.7-15.5,3.4-31,5.1-46.5c1.7-15.5,3.3-31,5-46.5
		c1.8-17,3.7-34,5.6-51c1.8-16.2,3.6-32.4,5.2-48.6c0.2-1.9,0.9-2.9,2.5-3.9c50.2-28.8,100.4-57.6,150.6-86.4
		c0.8-0.4,1.5-0.9,2.7-1.7c-0.8-0.6-1.5-1-2.1-1.6c-12-11.1-22.9-23.2-32.8-36.3c-33.6-44.7-52.5-95-56.4-150.8
		c-1.2-16.8-0.7-33.6,1.2-50.3c2.2-19.3,6.3-38.1,12.4-56.6c23.4-70.8,74.7-130,141.6-163.5c35.2-17.6,72.4-27.3,111.7-29.3
		C487.6,9.6,488.4,9.4,489.2,9.3z M806.8,915.1c-0.4-4.2-0.9-8.1-1.3-12c-0.9-8-1.7-16.1-2.6-24.1c-1.1-9.7-2.1-19.4-3.2-29.1
		c-0.9-8-1.7-16.1-2.6-24.1c-1-9.5-2.1-19.1-3.1-28.6c-1-9.5-2-19.1-3.1-28.6c-1.2-11-2.4-22.1-3.6-33.1c-1.2-11-2.4-22.1-3.6-33.2
		c-1.2-11-2.4-22.1-3.6-33.1c-1.3-11.8-2.6-23.5-3.8-35.3c-0.1-1.2-0.6-1.9-1.6-2.4c-2.6-1.5-5.2-3.2-7.8-4.7
		c-45.6-27.9-91.3-55.8-136.9-83.8c-1.4-0.8-2.4-1-3.9-0.3C591.6,560,555,569.8,516.4,572c-20.1,1.1-40.1,0.1-60-3.1
		c-25.9-4.3-50.8-12-74.6-23.3c-1.7-0.8-2.9-0.8-4.6,0.2c-36,20.7-71.9,41.4-107.9,62.1c-13.9,8-27.9,16-41.8,24
		c-1.5,0.8-2.2,1.8-2.3,3.5c-0.2,3.2-0.6,6.4-1,9.5c-0.9,7.9-1.7,15.9-2.6,23.8c-1,9.6-2.1,19.2-3.2,28.9c-1,9.5-2,19.1-3.1,28.6
		c-1.2,11-2.4,22.1-3.6,33.1c-1.2,11-2.4,22.1-3.6,33.2c-1.4,12.5-2.8,25-4.1,37.4c-1.4,12.6-2.7,25.1-4,37.7c-1.5,14-3.1,28-4.6,42
		c-0.2,1.8-0.3,3.6-0.5,5.6C398.9,915.1,602.7,915.1,806.8,915.1z M706,317.4c-0.7-0.3-1.4-0.6-2.2-0.8
		C636.9,295.3,570,274,503.1,252.7c-1.5-0.5-2.9-0.5-4.4,0c-66.8,21.3-133.7,42.6-200.6,63.9c-0.8,0.3-1.6,0.6-2.4,0.9
		c10.3,93.8,94,182.1,207.8,180.6C615.8,496.6,696.3,408.3,706,317.4z M700.8,237.7c-0.3-1.1-0.4-2-0.6-2.8
		c-3.9-13.9-9.2-27.2-15.9-40C651.9,133,588.5,88,512,83.8c-20.7-1.1-41.2,0.7-61.4,5.9c-43.5,11.2-79.7,34-108.6,68.4
		c-19,22.6-32.4,48.2-40.5,76.6c-0.3,0.9-0.9,1.9-0.4,3c0.8-0.2,1.4-0.4,2.1-0.6c64.8-20.6,129.6-41.2,194.4-61.9
		c2.2-0.7,4.1-0.7,6.2,0c64.7,20.6,129.4,41.2,194.1,61.8C698.9,237.2,699.7,237.4,700.8,237.7z"/>
	<path id="SHIRT" class="st0" d="M806.8,915.1c-204.1,0-407.8,0-611.8,0c0.2-2,0.3-3.8,0.5-5.6c1.5-14,3.1-28,4.6-42
		c1.4-12.6,2.7-25.1,4-37.7c1.4-12.5,2.7-25,4.1-37.4c1.2-11,2.4-22.1,3.6-33.2c1.2-11,2.4-22.1,3.6-33.1c1-9.5,2-19.1,3.1-28.6
		c1-9.6,2.1-19.2,3.2-28.9c0.9-7.9,1.7-15.9,2.6-23.8c0.3-3.2,0.8-6.4,1-9.5c0.1-1.7,0.8-2.7,2.3-3.5c14-8,27.9-16,41.8-24
		c36-20.7,72-41.3,107.9-62.1c1.7-1,2.9-1,4.6-0.2c23.8,11.3,48.6,19,74.6,23.3c19.9,3.3,39.9,4.3,60,3.1
		c38.6-2.2,75.2-12,109.7-29.3c1.5-0.8,2.6-0.6,3.9,0.3c45.6,27.9,91.3,55.9,136.9,83.8c2.6,1.6,5.2,3.2,7.8,4.7
		c1,0.6,1.4,1.3,1.6,2.4c1.2,11.8,2.5,23.5,3.8,35.3c1.2,11,2.4,22.1,3.6,33.1c1.2,11,2.4,22.1,3.6,33.2c1.2,11,2.4,22.1,3.6,33.1
		c1,9.5,2,19.1,3.1,28.6c1,9.5,2.1,19.1,3.1,28.6c0.9,8,1.7,16.1,2.6,24.1c1.1,9.7,2.1,19.4,3.2,29.1c0.9,8,1.7,16.1,2.6,24.1
		C805.9,907,806.3,910.9,806.8,915.1z"/>
</g>
</svg>
