<?xml version="1.0" encoding="utf-8"?>
<!-- Generator: Adobe Illustrator 19.2.1, SVG Export Plug-In . SVG Version: 6.00 Build 0)  -->
<svg version="1.1" xmlns="http://www.w3.org/2000/svg" xmlns:xlink="http://www.w3.org/1999/xlink" x="0px" y="0px"
	 viewBox="0 0 612 792" style="enable-background:new 0 0 612 792;" xml:space="preserve">
<style type="text/css">
	.st0{fill:#565656;}
	.st1{font-family:'Gotham-Medium';}
	.st2{font-size:48px;}
	.st3{fill:none;stroke:#565656;stroke-width:6;stroke-miterlimit:10;}
	.st4{fill:none;stroke:#000000;stroke-width:5;stroke-miterlimit:10;}
	.st5{fill:none;stroke:#565656;stroke-miterlimit:10;}
	.st6{font-family:'Gotham-Black';}
	.st7{font-size:14px;}
	.st8{font-family:'Gotham-Book';}
	.st9{font-size:10px;}
	.st10{font-size:11px;}
	.st11{font-family:'Gotham-Bold';}
	.st12{font-size:9px;}
	.st13{font-size:12px;}
	.st14{font-size:18px;}
	.st15{fill:#FFFFFF;}
</style>
<g id="Layer_2">
</g>
<g id="Layer_1">
	<text transform="matrix(1 0 0 1 37.3588 77.1967)"><tspan x="0" y="0" class="st0 st1 st2">COLE</tspan><tspan x="-1" y="43" class="st0 st1 st2">PAG</tspan><tspan x="106.7" y="43" class="st0 st1 st2">E</tspan></text>
	<rect x="18" y="22" class="st3" width="178.1" height="121.8"/>
	<line class="st3" x1="331" y1="21.2" x2="215.7" y2="22.3"/>
	<polyline class="st3" points="18.8,217 18.8,774 594,774 594,21.2 331,21.2 	"/>
	<line class="st3" x1="18.8" y1="161.9" x2="18.8" y2="217"/>
	<g>
		<rect x="39.2" y="162.9" class="st5" width="537.9" height="116.7"/>
	</g>
	<rect x="215.7" y="38.2" class="st5" width="360.4" height="86.7"/>
	<rect x="39.2" y="449.1" class="st5" width="278.9" height="307.7"/>
	<rect x="331.2" y="292.3" class="st5" width="244.9" height="464.5"/>
	<text transform="matrix(1 0 0 1 50 184)" class="st6 st7">EDUCATION:</text>
	<text transform="matrix(1 0 0 1 50 228.1951)" class="st8 st9">The George Washington University, Washington D.C. - 2014</text>
	<text transform="matrix(1 0 0 1 50 200)"><tspan x="0" y="0" class="st1 st10">B.S. in Mechanical Engineering </tspan><tspan x="172.4" y="0" class="st8 st10">(Aerospace Concentration)</tspan></text>
	<text transform="matrix(1 0 0 1 50 214)"><tspan x="0" y="0" class="st8 st9">Double Major in </tspan><tspan x="81" y="0" class="st1 st10">Economics</tspan></text>
	<text transform="matrix(1 0 0 1 50 245)" class="st11 st10">THESES:</text>
	<text transform="matrix(1 0 0 1 50.0001 269.4076)"><tspan x="0" y="0" class="st11 st12">Economics:</tspan><tspan x="52.3" y="0" class="st8 st12"> Predicting NBA Games using Points per Possession Modeling and Regression Analysis</tspan></text>
	<text transform="matrix(1 0 0 1 226.4958 60.6531)"><tspan x="0" y="0" class="st11 st10">1247 E Columbia Ave #19</tspan><tspan x="0" y="12" class="st11 st10">Philadelphia, PA 19125</tspan></text>
	<text transform="matrix(1 0 0 1 226.4952 114.7005)"><tspan x="0" y="0" class="st11 st10">e:   </tspan><tspan x="19.9" y="0" class="st8 st10">colehpage@gmail.com</tspan></text>
	<text transform="matrix(1 0 0 1 50.0003 469.8915)" class="st6 st7">WORK:</text>
	<text transform="matrix(1 0 0 1 343.4998 407.479)" class="st6 st7">SKILLS/TOOLBOX:</text>
	<text transform="matrix(1 0 0 1 344.4995 313.934)" class="st6 st7">LANGUAGES/FRAMEWORKS:</text>
	<text transform="matrix(1 0 0 1 50 693.8631)" class="st11 st13">INC. Business Owners Council</text>
	<text transform="matrix(1 0 0 1 50 676.8632)" class="st8 st9">2013</text>
	<text transform="matrix(1 0 0 1 50 708.8631)" class="st8 st9">Sales/Data Analytics Intern</text>
	<text transform="matrix(1 0 0 1 50.0001 606.549)" class="st11 st13">Freelance Web Developer</text>
	<text transform="matrix(1 0 0 1 50.0001 589.549)" class="st8 st9">2016 - 2017</text>
	<text transform="matrix(1 0 0 1 50.0001 621.549)" class="st8 st9">UX/UI Design and Programming</text>
	<text transform="matrix(1 0 0 1 434.7739 62.653)"><tspan x="0" y="0" class="st6 st14">Data Scientist</tspan><tspan x="24.2" y="17" class="st6 st14">Statistician</tspan><tspan x="12.1" y="34" class="st6 st14">Programmer</tspan><tspan x="57.7" y="51" class="st6 st14">Analyst</tspan></text>
	<text transform="matrix(1 0 0 1 344.4991 612.7946)" class="st6 st7">ADDITIONAL EXPERIENCE:</text>
	<text transform="matrix(1 0 0 1 50.0003 637.2797)"><tspan x="0" y="0" class="st8 st12">Start to finish web development for design portfolios</tspan><tspan x="0" y="11" class="st8 st12">and personal websites.  From concept, navigation, layout</tspan><tspan x="0" y="22" class="st8 st12">and programming to UX and SEO.</tspan></text>
	<text transform="matrix(1 0 0 1 50.0001 724.5544)"><tspan x="0" y="0" class="st8 st12">Worked with Excel/VBA to automate tasks and</tspan><tspan x="0" y="11" class="st8 st12">update/aggregate old and new CRM systems as well as</tspan><tspan x="0" y="22" class="st8 st12">use data to provide strategic direction.</tspan></text>
	<text transform="matrix(1 0 0 1 226.4955 100.5091)"><tspan x="0" y="0" class="st11 st10">t:   </tspan><tspan x="17.7" y="0" class="st8 st10">(415) 341-7387</tspan></text>
	<line class="st3" x1="594" y1="143.8" x2="215.7" y2="143.8"/>
	<text transform="matrix(1 0 0 1 343.4997 644.2797)" class="st11 st9">General Assembly, San Francisco CA</text>
	<text transform="matrix(1 0 0 1 343.4997 632.2797)" class="st11 st9">Machine Learning Intensive Course</text>
	<text transform="matrix(1 0 0 1 343.4997 660.8535)"><tspan x="0" y="0" class="st8 st12">Using python, gained practical computational</tspan><tspan x="0" y="10" class="st8 st12">experience by running machine learning</tspan><tspan x="0" y="20" class="st8 st12">algorithms and choosing the best and most</tspan><tspan x="0" y="30" class="st8 st12">representative data models to make predictions.</tspan></text>
	<text transform="matrix(1 0 0 1 344.4996 335.934)"><tspan x="0" y="0" class="st8 st12">Python (scikit-learn, numpy, scipy, pandas, etc),</tspan><tspan x="0" y="11" class="st8 st12">R, HTML, CSS/LESS/Sass, Javascript/jQuery,</tspan><tspan x="0" y="22" class="st8 st12">Matlab, PHP, Postgres, SQL/MySQL, Bootstrap,</tspan><tspan x="0" y="33" class="st8 st12">Matplotlib, Plotly, Dash, Seaborn, Theano,</tspan><tspan x="0" y="44" class="st8 st12">Tensorflow, XGBoost, Keras</tspan></text>
	<text transform="matrix(1 0 0 1 343.9997 538.4786)"><tspan x="0" y="0" class="st11 st12">Design:</tspan><tspan x="34.1" y="0" class="st8 st12"> Adobe Illustrator, Photoshop, InDesign</tspan></text>
	<text transform="matrix(1 0 0 1 343.9998 554.7126)"><tspan x="0" y="0" class="st11 st12">General:</tspan><tspan x="38.2" y="0" class="st8 st12"> Research, Database Creation and</tspan><tspan x="0" y="11" class="st8 st12">Management, SEO, Project Design, Predictive</tspan><tspan x="0" y="22" class="st8 st12">Analytics/Modeling, Excel, Data Driven Writing</tspan><tspan x="0" y="33" class="st8 st12">and Article Creation</tspan></text>
	<text transform="matrix(1 0 0 1 344 428.4778)"><tspan x="0" y="0" class="st11 st12">Machine Learning:</tspan><tspan x="83.3" y="0" class="st8 st12"> Classification, Regression,</tspan><tspan x="0" y="11" class="st8 st12">Clustering, Feature Engineering, Web Scraping,</tspan><tspan x="0" y="22" class="st8 st12">Data Mining/Cleaning, Data Visualization</tspan></text>
	<text transform="matrix(1 0 0 1 343.9999 467.0715)"><tspan x="0" y="0" class="st11 st12">Statistical Methods: </tspan><tspan x="92.7" y="0" class="st8 st12">Time Series, Regression</tspan><tspan x="0" y="11" class="st8 st12">Models, Hypothesis Testing and Confidence</tspan><tspan x="0" y="22" class="st8 st12">Intervals, PCA and Dimensionality Reduction,</tspan><tspan x="0" y="33" class="st8 st12">Stochastic Processes, Deep Neural Networks,</tspan><tspan x="0" y="44" class="st8 st12">Decision Trees, Random Forests, KNN, NB,</tspan><tspan x="0" y="55" class="st8 st12">Stacking/Ensembling</tspan></text>
	<text transform="matrix(1 0 0 1 50 257.3125)"><tspan x="0" y="0" class="st11 st12">Aerospace: </tspan><tspan x="54.3" y="0" class="st8 st12">Low-Speed Investigation of Drag Reduction Through Dimple-Induced Vortex Generation</tspan></text>
	<text transform="matrix(1 -8.600000e-04 8.600000e-04 1 344.4112 719.2758)" class="st6 st7">RECENT WEB PROJECTS:</text>
	<text transform="matrix(1 0 0 1 344.0001 735.6038)"><tspan x="0" y="0" class="st8 st12">www.lukebbarker.com</tspan><tspan x="0" y="11" class="st8 st12">www.swapsocks.com</tspan></text>
	<text transform="matrix(1 0 0 1 50.0002 313.9338)" class="st6 st7">RESEARCH INTERESTS:</text>
	<rect x="39.2" y="292.3" class="st5" width="278.9" height="145.6"/>
	<text transform="matrix(1 0 0 1 50.0001 331.4385)"><tspan x="0" y="0" class="st8 st12">I am interested in all forms of predictive analytics,</tspan><tspan x="0" y="11" class="st8 st12">machine learning, and forecasting. I am fascinated by the</tspan><tspan x="0" y="22" class="st8 st12">ability to condense large amounts of data into predictions</tspan><tspan x="0" y="33" class="st8 st12">and insights beyond the grasp of most. As an analyst and</tspan><tspan x="0" y="44" class="st8 st12">statistician I believe you must be passionate about both</tspan><tspan x="0" y="55" class="st8 st12">the tools you use and the subjects you use them on.</tspan></text>
	<text transform="matrix(1 0 0 1 50 402.9999)"><tspan x="0" y="0" class="st8 st12">My current research focuses on utilizing deep learning and</tspan><tspan x="0" y="11" class="st8 st12">ensemble methodology to better simulate and predict</tspan><tspan x="0" y="22" class="st8 st12">possession and end-of-game outcomes in the NBA.</tspan></text>
	<text transform="matrix(1 0 0 1 50.0003 506.7479)" class="st11 st13">SWAP Socks LLC</text>
	<text transform="matrix(1 0 0 1 50.0003 489.7479)" class="st8 st9">2014 - 2017</text>
	<text transform="matrix(1 0 0 1 50.0003 521.7479)" class="st8 st9">CTO &amp; Co-Founder</text>
	<text transform="matrix(1 0 0 1 50.0006 537.4785)"><tspan x="0" y="0" class="st8 st12">SWAP Socks makes high quality, mismatched socks to</tspan><tspan x="0" y="11" class="st8 st12">bring aid and awareness to the fight against preventable</tspan><tspan x="0" y="22" class="st8 st12">blindness and visual impairment around the world. Led all</tspan><tspan x="0" y="33" class="st8 st12">analytics, web design, and e-commerce facets.</tspan></text>
</g>
</svg>
