<svg id="Layer_1" data-name="Layer 1" xmlns="http://www.w3.org/2000/svg" viewBox="0 0 32.57911 31.77461">
  <defs>
    <style>
      .cls-1 {
        fill: #191717;
        fill-rule: evenodd;
      }
    </style>
  </defs>
  <title>github</title>
  <path class="cls-1" d="M-80.6573,123.32771a16.29,16.29,0,0,0-16.2885,16.2905,16.2924,16.2924,0,0,0,11.1406,15.4561,0.81869,0.81869,0,0,0,1.1118-.7852c0-.3867-0.0141-1.4111-0.022-2.7705-4.5312.9844-5.48729-2.1836-5.48729-2.1836a4.31364,4.31364,0,0,0-1.80861-2.3828c-1.479-1.0107.1119-.9902,0.1119-0.9902a3.42172,3.42172,0,0,1,2.4951,1.6787,3.46829,3.46829,0,0,0,4.7407,1.3535,3.48053,3.48053,0,0,1,1.0342-2.1777c-3.6172-.4111-7.4199-1.8086-7.4199-8.0508a6.29652,6.29652,0,0,1,1.6767-4.3711,5.859,5.859,0,0,1,.1597-4.311s1.3677-.438,4.4795,1.6699a15.60259,15.60259,0,0,1,4.0781-.5483,15.62489,15.62489,0,0,1,4.0781.5483c3.1099-2.1079,4.4751-1.6699,4.4751-1.6699a5.8508,5.8508,0,0,1,.1621,4.311,6.28582,6.28582,0,0,1,1.6744,4.3711c0,6.2578-3.8086,7.6348-7.4375,8.0381a3.88777,3.88777,0,0,1,1.1059,3.0166c0,2.1777-.02,3.9346-0.02,4.4687a0.81584,0.81584,0,0,0,1.1201.7833,16.29475,16.29475,0,0,0,11.13041-15.4542A16.29052,16.29052,0,0,0-80.6573,123.32771Z" transform="translate(96.9458 -123.32771)"/>
</svg>
