<svg id="Layer_1" data-name="Layer 1" xmlns="http://www.w3.org/2000/svg" viewBox="0 0 148.13256 77.28187"><defs><style>.cls-1{fill:#67a2ff;}</style></defs><title>ma_logo</title><path class="cls-1" d="M-145.09032,200.28187h-20.93392V123.023h1.30864c6.68,0,13.36.01747,20.03975-.02066a1.90593,1.90593,0,0,1,1.9056,1.03686q8.37583,13.70553,16.83274,27.36152c0.27169,0.44079.55157,0.87654,0.90541,1.43806,0.34261-.53713.64141-0.99211,0.927-1.45526q8.43044-13.67366,16.83981-27.36021a1.80147,1.80147,0,0,1,1.77964-1.02321c6.7197,0.04178,13.43977.02291,20.15972,0.02291h1.29954c0.0285,0.39948.07423,0.7436,0.07444,1.08774q0.00635,9.95993-.00861,19.91983a4.00065,4.00065,0,0,1-.27433,1.50921q-10.26114,24.33593-20.55752,48.657c-0.0769.18184-.17451,0.35492-0.39774,0.80465V156.47128l-0.24339-.10478c-0.20943.29315-.42965,0.57925-0.62673,0.88048q-9.15671,13.99564-18.3106,27.99313c-0.85285,1.30336-.91343,1.30267-1.74254.036q-8.995-13.74247-17.98654-27.48721c-0.2569-.39256-0.52557-0.77741-0.99033-1.46335v43.95634Z" transform="translate(166.02424 -123)"/><path d="M-17.89169,200.28187H-36.15719c-2.70384,0-2.70918.00219-3.73847-2.50913-1.44044-3.51446-2.88893-7.02583-4.2923-10.55511a1.22344,1.22344,0,0,0-1.32474-.92076q-14.81721.03229-29.63447-.00349a1.29258,1.29258,0,0,0-1.39021,1.00374c-1.69749,4.32064-3.43473,8.62566-5.15594,12.92865h-20.55513c1.17912-2.80832,2.312-5.52152,3.45644-8.22989q14.20249-33.61207,28.38524-67.23245a1.746,1.746,0,0,1,1.93017-1.28955c5.70761,0.0624,11.41634.04263,17.12448,0.01328a1.29694,1.29694,0,0,1,1.45344.89342q15.84192,37.59055,31.72894,75.16206C-18.09416,199.72156-18.03241,199.90631-17.89169,200.28187Zm-42.33446-55.11647-10.14726,25.56036h20.16706Z" transform="translate(166.02424 -123)"/></svg>